<svg width="35" height="31" fill="none" xmlns="http://www.w3.org/2000/svg"><g filter="url(#filter0_d)" fill="#C5C5C5"><path d="M11.29 7.49L8.46 10.3l7.78 7.79L30.17 4.17l-2.83-2.83-11.1 11.1-4.95-4.95z"/><path d="M25 20c0 .54-.46 1-1 1H7c-.54 0-1-.46-1-1V3c0-.54.46-1 1-1h16.9L25.5.42A2.96 2.96 0 0024 0H7a3 3 0 00-3 3v17a3 3 0 003 3h17a3 3 0 003-3v-9.83l-2 2V20z"/></g><defs><filter id="filter0_d" x="0" y="0" width="35" height="31" filterUnits="userSpaceOnUse" color-interpolation-filters="sRGB"><feFlood flood-opacity="0" result="BackgroundImageFix"/><feColorMatrix in="SourceAlpha" values="0 0 0 0 0 0 0 0 0 0 0 0 0 0 0 0 0 0 127 0"/><feOffset dy="4"/><feGaussianBlur stdDeviation="2"/><feColorMatrix values="0 0 0 0 0 0 0 0 0 0 0 0 0 0 0 0 0 0 0.25 0"/><feBlend in2="BackgroundImageFix" result="effect1_dropShadow"/><feBlend in="SourceGraphic" in2="effect1_dropShadow" result="shape"/></filter></defs></svg>