<svg width="1233" height="769" fill="none" xmlns="http://www.w3.org/2000/svg"><path d="M123 127c0 .55-.37.74-.82.43l-5.36-3.77a1.54 1.54 0 00-1.64 0l-5.36 3.77c-.45.31-.82.12-.82-.43v-14a1 1 0 011-1h12a1 1 0 011 1v14zM213.5 127a1.5 1.5 0 100-3 1.5 1.5 0 000 3zM221.5 127a1.5 1.5 0 100-3 1.5 1.5 0 000 3zM224 114h-10.93l-.42-2H209v2h2.03l1.99 9H224v-2h-5.56l5.56-2.05V114z" fill="#fff"/><path d="M324.88 119.5L316 111v6h-6v5h6v6l8.88-8.5z" fill="#C5C5C5"/><path d="M326.99 126.01h-5.03V128h5.03c2.17 0 3-1.81 3.02-3.03v-10.94c-.02-1.22-.85-3.03-3.02-3.03h-5.03v1.99h5.03c.83 0 .99.68 1 1.06v10.9c-.01.38-.17 1.06-1 1.06z" fill="#C5C5C5"/><path d="M432.57 128.99h-.94a14.53 14.53 0 01-9.36-4.87 16.33 16.33 0 01-4.3-9.9v-1.14c.09-.77.47-1.3.9-1.75.56-.56 1.38-1.29 2.13-1.31.56-.02 1.5.38 1.88.9.33.44.5 1.34.66 2 .15.67.5 1.64.4 2.29-.14 1-1.48 1.43-1.87 2.17a14.03 14.03 0 006.29 7.03c.71-.4 1.34-1.58 2.33-1.6.36 0 .82.18 1.19.29.4.12.75.27 1.1.4.6.23 1.65.53 2 1.03.37.51.57 1.35.5 1.88-.17 1.04-1.89 2.2-2.9 2.58z" fill="#B7BFC8"/><path fill-rule="evenodd" clip-rule="evenodd" d="M535.46 123.04l3.54 3.55-1.41 1.41-3.55-3.54a7.5 7.5 0 111.41-1.41zM529.5 113a5.5 5.5 0 10.01 11.01 5.5 5.5 0 00-.01-11.01zM112 212h15a3 3 0 013 3v15a3 3 0 01-3 3h-15a3 3 0 01-3-3v-15a3 3 0 013-3zm11 10.5a3.5 3.5 0 10-7 0 3.5 3.5 0 007 0zm-11 7.5v-9h1.18a6.5 6.5 0 1012.64 0H127v9h-15zm11-11h4v-4h-4v4z" fill="#fff"/><path d="M143.91 407.44v10.87s.1 2.73-2.82 2.73c-3.07 0-3.13-2.73-3.13-2.73v-6.42c0-.24-.34-1.9-2.32-1.9-2.62 0-2.67 1.87-2.67 1.87v19.22s.03 1.86-2.46 1.86c-2.51 0-2.51-1.98-2.51-1.98v-13.94s0-2.95-3.8-2.95c-4.06 0-3.97 3.13-3.97 3.13v3.72s-.12 2.95-4.69 2.95-4.63-4.51-4.63-4.51v-12.42a65.94 65.94 0 01-4.91-3.27V433s2.99 9 22 9c19.01 0 22-8.7 22-8.7v-29.63c-2.94 2.83-6.09 3.77-6.09 3.77z" fill="#fff"/><path fill-rule="evenodd" clip-rule="evenodd" d="M128 377c-20.31 0-22 19.88-22 19.88v3.06c8.44 6.25 22 6.06 22 6.06s13.56.19 22-6.06v-3.06S148.31 377 128 377zm0 25c-11.75 0-14.31-2.38-14.31-2.38 6.25-2.87 14.31-2.75 14.31-2.75s8.06-.12 14.31 2.75c0 0-2.56 2.38-14.31 2.38zm-17.69-9.44s8.13-2.94 17.69-2.94 17.69 2.94 17.69 2.94c-4.56-12.94-17.69-12.5-17.69-12.5s-13.13-.44-17.69 12.5zM260.1 377c-1.93 0-2.1 2.04-2.1 2.04v15.81c0 2.94 2.9 3 2.9 3h9.01c1.94 0 1.6 1.34 1.6 1.34s-2.47 13-2.73 15.21a6.22 6.22 0 01-1.87 3.6l-3 1.67c-.87.47-.87 2.2-.87 2.2h30.89v-.73c0-1.47-6.47-3.14-9.07-3.4-2.6-.27-2.07-2-2.07-2l1.06-7.81h3l1.14-7.87h-3l.33-2.74 8.6-.13c5.81-.6 10.02-4.07 10.02-4.07V381.1c-4.6-3.27-11.95-4.11-11.95-4.11H260.1zm58.29 8.02h13.49c.57 0 1.04 1.1 1.04 2.48 0 1.37-.47 2.48-1.05 2.48H318.4c-.62 2.3-2.07 3.9-3.76 3.9h-7.55v-12.75h7.55c1.69 0 3.14 1.6 3.76 3.89zM264.9 438c-1.87 0-1.87-2.05-1.87-2.05v-11h30.89v11.07c0 1.8-2 1.98-2 1.98H264.9zM294 381.97v-.03a1 1 0 00-1-1h-29.97a1 1 0 00-1 1v.03a1 1 0 001 1H293a1 1 0 001-1zM425 422.88a16.13 16.13 0 1132.25 0 16.13 16.13 0 01-32.25 0zm10.96 5.16a7.3 7.3 0 1010.33-10.33 7.3 7.3 0 00-10.33 10.33zm49.9-5.17a8.06 8.06 0 100 16.13 8.06 8.06 0 000-16.13zm-5.07 8.07a5.06 5.06 0 1010.13 0 5.06 5.06 0 00-10.13 0z" fill="#fff"/><path fill-rule="evenodd" clip-rule="evenodd" d="M500.44 408.31l2.46 18.42s.74 3.14-2.9 3.14h-1.95a12.22 12.22 0 00-24.39 0H463.5a23.44 23.44 0 00-35.45-26.45c-.05-2.96-.05-13.88 2.26-20.25 0 0 1.06-2.55 3.44-3.17 2.38-.63 24.75-3 24.75-3s2.31.06 3.13 1.88c.8 1.8 10.56 21.87 10.56 21.87l11.81 1.38v-5.3h4V391h3v11.95l5.81.68s3.08.54 3.63 4.68zm-59.31-11.48h6.95v-13.66h-6.95v13.66zm16.95 0h-6.95v-13.66h6.95v13.66zM474 413h4.02v-7H474v7zm11.02 0H481v-7h4.02v7zm2.98 0h4.02v-7H488v7zM161.34 560.54a3 3 0 00-2.4-1.19h-38.67l-2.47-7.38h-11.74a3 3 0 100 6h7.42l13.5 40.28h25.16a3 3 0 100-6H131.3l-1.73-5.15h23.12a3 3 0 002.89-2.17l6.25-21.75a3 3 0 00-.49-2.63zm-7.78 9.69h-4.81v-4.88h6.21l-1.4 4.88zm-17.62-4.88v4.88h6.8v-4.88h-6.8zm6.8 10.88v4.87h-6.8v-4.87h6.8zm-12.8-6v-4.88h-7.66l1.64 4.88h6.02zm-4.01 6h4.01v4.87h-2.38l-1.63-4.87zm22.82 0v4.87h1.68l1.4-4.87h-3.08z" fill="#fff"/><path d="M130.4 611.88a5.78 5.78 0 100-11.57 5.78 5.78 0 000 11.57zM147.84 611.88a5.78 5.78 0 100-11.57 5.78 5.78 0 000 11.57zM132.34 549.7l7.54 5.5a1.99 1.99 0 002.82-.5c.65-.94.43-2.24-.48-2.9l-2.37-1.72 9.43-5.1 4.63 12.02h4.35l-6.05-15.7c-.2-.53-.63-.96-1.17-1.17a1.97 1.97 0 00-1.65.1l-13.24 7.15-3.03-2.2a1.99 1.99 0 00-2.74.4l-8.48 10.8c-.17.17-.3.39-.4.62h5.1l5.74-7.3zM276.98 602a7.5 7.5 0 100-15 7.5 7.5 0 000 15zM310.98 602a7.5 7.5 0 100-15 7.5 7.5 0 000 15z" fill="#fff"/><path fill-rule="evenodd" clip-rule="evenodd" d="M262.06 539H315s14 14.81 14 33.69v15.25s-.19 4.06-3.13 4.06h-1.7a13.5 13.5 0 00-26.52 0h-7.4a13.5 13.5 0 00-26.53 0h-2.1s-2.56-.62-2.56-3.81v-15.62l14.75-.76s5.49-.6 6.3-3.75l-23.66-1.26a3.37 3.37 0 110-6.75h9.05l8.31-.42s8.18-.61 8.94-3.8l-.2-.05-28.08-1.84a3.47 3.47 0 110-6.94h4.6v-4.88s-.2-3.12 3-3.12zm40.94 8.94v15h15.81l-5.75-15H303z" fill="#fff"/><path d="M464.27 222.5l7.43-7.42a1 1 0 000-1.42l-1.36-1.35a1 1 0 00-1.42 0l-7.42 7.42-7.42-7.42a1 1 0 00-1.42 0l-1.36 1.35a1 1 0 000 1.42l7.43 7.42-7.42 7.42a1 1 0 000 1.42l1.36 1.35a1 1 0 001.4 0l7.43-7.42 7.42 7.42a1 1 0 001.42 0l1.36-1.35a1 1 0 000-1.42l-7.43-7.42z" fill="#EE3643"/><path d="M839 122v4h4v-4h2v4h4v-4l-5-4.48-5 4.48z" fill="#C1C6CE"/><path d="M850.83 120.36l-1.83-1.6V114h-2v2.99l-2.67-2.35-.06-.04a.5.5 0 00-.08-.05.53.53 0 00-.1-.02l-.09-.02-.1.02a.46.46 0 00-.09.02l-.08.05-.06.04-6.5 5.72a.5.5 0 00.66.75l6.17-5.43 6.17 5.43a.5.5 0 00.66-.75z" fill="#C1C6CE"/><path d="M197.14 227.51c.95-.3 2.18 2.04 3.48 2.94.98.68 1.73.53 1.73.53l3.47-.05s1.82-.1.96-1.55c-.07-.12-.5-1.07-2.59-3.02-2.17-2.05-1.88-1.72.74-5.25 1.6-2.15 2.24-3.47 2.04-4.03-.2-.53-1.37-.4-1.37-.4l-3.91.03c-.38 0-.7.12-.85.52 0 0-.62 1.66-1.45 3.08-1.74 2.99-2.43 3.15-2.72 2.96-.66-.44-.5-1.74-.5-2.67 0-2.9.44-4.1-.84-4.41a6.6 6.6 0 00-1.83-.19c-1.39-.02-2.57 0-3.24.33-.45.23-.79.72-.58.74.26.04.84.16 1.15.59.4.55.4 1.79.4 1.79s.22 3.41-.55 3.83c-.53.3-1.25-.3-2.8-3.01-.8-1.4-1.4-2.93-1.4-2.93s-.1-.28-.32-.44c-.25-.18-.6-.24-.6-.24l-3.71.02s-.56.02-.76.27c-.19.21-.02.66-.02.66s2.9 6.88 6.2 10.35c3.02 3.18 6.45 2.97 6.45 2.97h1.56s.47-.05.7-.31c.23-.24.22-.7.22-.7s-.03-2.1.94-2.41zM271 216v-4h-4a4 4 0 00-4 4v4h-4v4h4v10h4v-10h4v-4h-4v-4h4z" fill="#fff"/><path d="M642.88 125.17c-2.14-.74-4.25-1.67-5.2-2.4-.66-.5-.78-1.61-.52-2.4a5.49 5.49 0 001.86-4.29c0-2.8-1.8-5.08-4.02-5.08-2.22 0-4.02 2.28-4.02 5.08 0 1.8.75 3.38 1.86 4.28.25.8.14 1.92-.51 2.42-.96.72-3.07 1.65-5.21 2.39-2.15.73-2.12 3.83-2.12 3.83h20s.02-3.1-2.12-3.83z" fill="#C5C5C5"/><path d="M535.24 222.64l-5.51-5.5a.5.5 0 10-.72.7l5.15 5.16-5.15 5.15a.5.5 0 00.72.72l5.5-5.51a.5.5 0 000-.72z" fill="#C1C6CE"/><path opacity=".3" d="M845 232a10 10 0 01-10-10v2a10 10 0 0020 0v-2a10 10 0 01-10 10z" fill="#ABABAB"/><path d="M845 232a10 10 0 100-20 10 10 0 000 20z" fill="#fff"/><path d="M845 224a2 2 0 100-4 2 2 0 000 4z" fill="#ABABAB"/><path d="M599.28 218.49l-2.82 2.82 7.78 7.79 13.93-13.93-2.83-2.83-11.1 11.1-4.96-4.95z" fill="#C5C5C5"/><path d="M613 231c0 .54-.46 1-1 1h-17c-.54 0-1-.46-1-1v-17c0-.54.46-1 1-1h16.9l1.6-1.59a2.96 2.96 0 00-1.5-.41h-17a3 3 0 00-3 3v17a3 3 0 003 3h17a3 3 0 003-3v-9.83l-2 2V231z" fill="#C5C5C5"/><path fill-rule="evenodd" clip-rule="evenodd" d="M754 222.5a12.5 12.5 0 1125 0 12.5 12.5 0 01-25 0zm21 0a8.51 8.51 0 00-17 0 8.51 8.51 0 0017 0z" fill="#C5C5C5"/><path d="M766.5 227a4.5 4.5 0 100-9 4.5 4.5 0 000 9z" fill="#C5C5C5"/><path fill-rule="evenodd" clip-rule="evenodd" d="M911 222.5a12.5 12.5 0 1125 0 12.5 12.5 0 01-25 0zm21 0a8.51 8.51 0 00-17 0 8.51 8.51 0 0017 0z" fill="#C5C5C5"/><path d="M1036 251a33 33 0 100-66 33 33 0 000 66z" fill="#63A63E"/><path d="M1052.64 206.07a1 1 0 00-1.41 0l-18.44 18.43c-.39.4-1.02.4-1.42 0l-8.14-8.13a1 1 0 00-1.41 0l-3.54 3.53c-.38.4-.38 1.02 0 1.41l13.09 13.1c.4.38 1.03.38 1.42 0l3.53-3.54 1.42-1.42 18.44-18.43c.38-.4.38-1.03 0-1.42l-3.54-3.53z" fill="#fff"/><path d="M751 119.5l-8.88-8.5v6h-6v5h6v6l8.88-8.5z" fill="#C5C5C5"/><path d="M733.1 124.95v-10.9c.02-.38.18-1.06 1.02-1.06h5.02V111h-5.02c-2.18 0-3 1.81-3.03 3.03v10.94c.02 1.22.85 3.03 3.03 3.03h5.02v-1.99h-5.02c-.84 0-1-.68-1.01-1.06z" fill="#C5C5C5"/><path fill-rule="evenodd" clip-rule="evenodd" d="M726.85 407.66v14.79h-2.12v-14.8h-3.75v-1.63h9.62v1.64h-3.75zm-8.14 8.7c-.37.46-.83.79-1.38.98-.56.2-1.22.3-1.99.3a12 12 0 01-2.35-.24v5.05h-2.1v-16.2c.59-.17 1.19-.3 1.79-.36.6-.07 1.25-.11 1.96-.11.94 0 1.74.1 2.4.3.65.19 1.18.51 1.59.97.4.45.7 1.06.9 1.8.18.76.27 1.69.27 2.8 0 1.14-.09 2.1-.27 2.86a4.62 4.62 0 01-.82 1.85zm-1.2-6.82a3.3 3.3 0 00-.55-1.34 1.99 1.99 0 00-.95-.7 4.2 4.2 0 00-1.37-.2H713v8.7h1.64c.53 0 .99-.07 1.37-.2.39-.14.7-.37.95-.7.25-.33.44-.77.55-1.34.12-.56.18-1.26.18-2.11 0-.84-.06-1.55-.18-2.11zm-11.91 8.68h-4.7l-1.05 4.23h-2.12l4-16.44h3.05l3.99 16.44h-2.11l-1.06-4.23zm-2.3-9.86h-.1l-1.94 8.22h3.99l-1.95-8.22zm-10.14 1.88h-.12l-3.4 10.1h-2.12l-3.4-10.1H684l-.7 12.21h-2.12l.94-16.44h2.58l3.83 11.28h.1l3.82-11.28h2.58l.94 16.44h-2.1l-.71-12.2zm-15.78 10.68a3.7 3.7 0 01-1.59 1.37c-.61.26-1.32.4-2.12.4s-1.5-.14-2.13-.4a3.69 3.69 0 01-1.58-1.37 7.2 7.2 0 01-1-2.6 20.54 20.54 0 01-.34-4.09c0-1.64.12-3 .34-4.1a7.2 7.2 0 011-2.59c.44-.64.97-1.1 1.58-1.36.62-.27 1.33-.4 2.13-.4.8 0 1.5.13 2.12.4.62.26 1.15.72 1.59 1.36.44.64.77 1.5 1 2.6.22 1.08.34 2.45.34 4.1 0 1.64-.12 3-.34 4.09a7.22 7.22 0 01-1 2.6zm-1.02-10.16a8.19 8.19 0 00-.65-2.16c-.26-.54-.58-.9-.94-1.1-.36-.2-.73-.31-1.1-.31-.38 0-.74.1-1.1.3-.36.2-.68.57-.94 1.1a8.19 8.19 0 00-.65 2.17c-.16.9-.25 2.06-.25 3.47 0 1.41.09 2.57.25 3.48.16.9.38 1.63.65 2.16.26.53.58.9.94 1.1.36.2.72.3 1.1.3.38 0 .74-.1 1.1-.3.36-.2.68-.57.94-1.1.27-.54.48-1.25.65-2.16.16-.91.24-2.07.24-3.48 0-1.4-.08-2.56-.24-3.47zm-12.67 4.18h-4.93v7.51h-2.11v-16.44h2.11v7.28h4.93v-7.28h2.11v16.44h-2.1v-7.51zm-11.15 7.51l-2.93-7.04-2.94 7.04h-2.11l3.52-8.45-3.17-7.99h2.11l2.59 6.58 2.58-6.57h2.11l-3.17 7.98 3.52 8.45h-2.11zm-17.26-16.44h7.99v1.65h-5.87v5.4h5.16v1.64h-5.16v6.1h5.87v1.65h-7.99v-16.44zm-5.63 16.44h-2.12v-14.8h-3.75v-1.63h9.63v1.64h-3.76v14.79z" fill="#fff"/><path fill-rule="evenodd" clip-rule="evenodd" d="M678 212h17a3 3 0 013 3v17a3 3 0 01-3 3h-17a3 3 0 01-3-3v-17a3 3 0 013-3zm18 3c0-.54-.46-1-1-1h-17c-.54 0-1 .46-1 1v17c0 .54.46 1 1 1h17c.54 0 1-.46 1-1v-17z" fill="#C5C5C5"/><path d="M392.83 203.97l2.09 2.1-17.79 17.88 17.85 17.94-2.1 2.1-19.93-20.04 19.88-19.98z" fill="#fff"/><g filter="url(#filter0_i)"><path fill="url(#pattern0)" d="M798 384h220v68H798z"/></g><mask id="a" maskUnits="userSpaceOnUse" x="798" y="384" width="220" height="68"><path fill="url(#pattern1)" d="M798 384h220v68H798z"/></mask><g filter="url(#filter1_i)" mask="url(#a)"><path fill="#EE3643" d="M798 384h220v68H798z"/></g><path fill-rule="evenodd" clip-rule="evenodd" d="M971.7 407.4v18.9H969v-18.9h-4.8v-2.1h12.3v2.1h-4.8zm-10.4 11.11a3.86 3.86 0 01-1.77 1.26c-.71.25-1.56.38-2.54.38a15.32 15.32 0 01-3-.3v6.45h-2.7v-20.7c.76-.22 1.53-.38 2.3-.47.77-.09 1.6-.13 2.5-.13 1.2 0 2.22.12 3.06.37.84.25 1.52.67 2.04 1.25s.9 1.35 1.14 2.3a15 15 0 01.36 3.58c0 1.46-.11 2.68-.34 3.66a5.9 5.9 0 01-1.05 2.35zm-1.53-8.71a4.22 4.22 0 00-.7-1.71 2.55 2.55 0 00-1.22-.89 5.37 5.37 0 00-1.76-.25H954v11.1h2.1c.68 0 1.27-.09 1.76-.26s.9-.46 1.21-.88c.32-.42.56-1 .7-1.71.16-.72.23-1.62.23-2.7s-.07-1.98-.22-2.7zm-15.23 11.1h-6l-1.35 5.4h-2.7l5.1-21h3.9l5.1 21h-2.7l-1.35-5.4zm-2.94-12.6h-.12L939 418.8h5.1l-2.49-10.5zm-12.96 2.4h-.15l-4.35 12.9h-2.7l-4.35-12.9h-.15l-.9 15.6h-2.7l1.2-21h3.3l4.9 14.4h.11l4.9-14.4h3.3l1.2 21h-2.7l-.9-15.6zm-20.16 13.65a4.71 4.71 0 01-2.02 1.74c-.8.34-1.7.5-2.72.5a6.81 6.81 0 01-2.71-.5 4.71 4.71 0 01-2.03-1.74 9.22 9.22 0 01-1.27-3.32 26.26 26.26 0 01-.44-5.23c0-2.1.15-3.85.44-5.24.29-1.39.71-2.5 1.27-3.31a4.71 4.71 0 012.03-1.74c.79-.34 1.7-.51 2.71-.51 1.02 0 1.93.17 2.72.5.79.35 1.46.93 2.02 1.75s.99 1.92 1.28 3.31c.29 1.4.43 3.14.43 5.24s-.14 3.84-.43 5.23a9.22 9.22 0 01-1.28 3.32zm-1.3-13a10.48 10.48 0 00-.83-2.75 3.18 3.18 0 00-1.2-1.41 2.83 2.83 0 00-1.4-.4c-.49 0-.96.14-1.42.4-.46.26-.86.73-1.2 1.4-.34.69-.61 1.6-.82 2.77a25.69 25.69 0 00-.32 4.44c0 1.8.1 3.28.32 4.44.2 1.16.48 2.08.82 2.76.34.68.74 1.15 1.2 1.4.46.27.93.4 1.41.4.48 0 .95-.13 1.41-.4.46-.25.86-.72 1.2-1.4.34-.68.62-1.6.83-2.76.2-1.16.31-2.64.31-4.44 0-1.8-.1-3.28-.31-4.44zm-16.19 5.35h-6.3v9.6H882v-21h2.7v9.3h6.3v-9.3h2.7v21H891v-9.6zm-14.25 9.6l-3.75-9-3.75 9h-2.7l4.5-10.8-4.04-10.2h2.7l3.3 8.4 3.3-8.4h2.7l-4.05 10.2 4.5 10.8h-2.7zm-22.04-21h10.2v2.1h-7.5v6.9h6.6v2.1h-6.6v7.8h7.5v2.1h-10.2v-21zm-7.2 21h-2.7v-18.9H840v-2.1h12.3v2.1h-4.8v18.9z" fill="#fff"/></svg>
